<svg xmlns="http://www.w3.org/2000/svg" viewBox="0 0 200 200">
  <!-- Red Monster Level 1 -->
  <!-- Body -->
  <circle cx="100" cy="100" r="40" fill="#ef5350"/>
  <circle cx="100" cy="100" r="38" fill="#e57373"/>

  <!-- Spots -->
  <path d="M85,90 Q88,85 92,88 Z" fill="#b71c1c" opacity="0.5"/>
  <path d="M110,115 Q115,112 112,108 Z" fill="#b71c1c" opacity="0.5"/>
  <path d="M90,120 Q95,125 98,118 Z" fill="#b71c1c" opacity="0.5"/>

  <!-- Small fins -->
  <path d="M65,100 Q55,85 70,95 Z" fill="#e53935"/>
  <path d="M135,100 Q145,85 130,95 Z" fill="#e53935"/>

  <!-- Top fin -->
  <path d="M100,60 Q90,45 100,50 Q110,45 100,60 Z" fill="#e53935"/>

  <!-- Eyes -->
  <circle cx="85" cy="85" r="10" fill="white"/>
  <circle cx="115" cy="85" r="10" fill="white"/>
  <circle cx="85" cy="85" r="5" fill="black"/>
  <circle cx="115" cy="85" r="5" fill="black"/>
  <circle cx="87" cy="83" r="2" fill="white"/>
  <circle cx="117" cy="83" r="2" fill="white"/>

  <!-- Mouth -->
  <path d="M90,110 Q100,120 110,110" stroke="black" stroke-width="2" fill="none"/>

  <!-- Shadow -->
  <ellipse cx="100" cy="145" rx="30" ry="5" fill="#00000033"/>
</svg>
